# xmcd CD database file
#
# Track frame offsets:
#	150
#	23702
#	48512
#	69620
#	94337
#	116315
#	137870
#	157847
#	180060
#	200962
#	222125
#	242880
#
# Disc length: 3566 seconds
#
# Revision: 0
# Processed by: cddbd v1.5PL3 Copyright (c) Steve Scherf et al.
# Submitted via: CDex 1.50
#
DISCID=a40dec0c
DTITLE=Ryo KAWASAKI - コズミックリズム
DYEAR=1900
DGENRE=Jazz
TTITLE0=Gravity
TTITLE1=Love, Life Within the Sun
TTITLE2=Keep On Movin
TTITLE3=Undeerstanding
TTITLE4=Kindness
TTITLE5=Groovin' Field
TTITLE6=Airegin
TTITLE7=Dreamland
TTITLE8=Trinkets and Things
TTITLE9=Let it Flow
TTITLE10=Ascension
TTITLE11=Soul Behind the Mirror
EXTD=
EXTT0=
EXTT1=
EXTT2=
EXTT3=
EXTT4=
EXTT5=
EXTT6=
EXTT7=
EXTT8=
EXTT9=
EXTT10=
EXTT11=
PLAYORDER=
